<?xml version="1.0" standalone="no"?>
<!DOCTYPE svg PUBLIC "-//W3C//DTD SVG 20010904//EN"
 "http://www.w3.org/TR/2001/REC-SVG-20010904/DTD/svg10.dtd">
<svg version="1.0" xmlns="http://www.w3.org/2000/svg"
 width="444.000000pt" height="250.000000pt" viewBox="0 0 444.000000 250.000000"
 preserveAspectRatio="xMidYMid meet">

<g transform="translate(0.000000,250.000000) scale(0.100000,-0.100000)"
fill="#000000" stroke="none">
<path d="M0 1250 l0 -1250 900 0 c688 0 900 3 900 12 0 9 3 9 12 0 15 -15 38
-16 38 -1 0 5 -13 15 -29 20 -19 7 -28 16 -24 25 3 7 -4 29 -16 47 -26 43 -26
46 -1 40 24 -6 52 -55 44 -76 -3 -8 9 -25 30 -40 l35 -27 1275 0 1276 0 0
1250 0 1250 -2220 0 -2220 0 0 -1250z m1597 -72 c-3 -8 -6 -5 -6 6 -1 11 2 17
5 13 3 -3 4 -12 1 -19z m743 -14 c0 -8 -4 -14 -8 -14 -5 0 -14 -10 -20 -22 -8
-18 -11 -19 -11 -6 -1 9 3 19 8 22 5 3 7 15 4 26 -4 16 -2 19 11 14 9 -3 16
-12 16 -20z m-1192 -15 c0 -19 -4 -29 -11 -26 -11 3 -12 13 -8 47 3 24 18 7
19 -21z m192 -9 c0 -5 -4 -10 -10 -10 -5 0 -10 5 -10 10 0 6 5 10 10 10 6 0
10 -4 10 -10z m-3 -59 c-1 -16 -5 -27 -8 -25 -4 2 -9 -3 -13 -11 -3 -8 -11
-15 -17 -15 -7 0 -5 8 5 19 11 13 15 27 11 40 -4 15 -2 21 9 21 11 0 15 -9 13
-29z m-7 -104 c-23 -51 -50 -63 -50 -22 0 19 5 25 21 25 14 0 24 10 31 32 6
18 13 28 15 22 2 -6 -6 -31 -17 -57z m-23 -89 c-3 -7 -5 -2 -5 12 0 14 2 19 5
13 2 -7 2 -19 0 -25z m-180 -42 c2 -60 -10 -77 -54 -82 -24 -3 -24 -2 -7 12
18 15 18 15 -1 10 -17 -5 -16 -3 5 14 17 13 20 20 10 20 -10 0 -7 7 10 20 14
10 21 22 17 26 -5 6 9 34 17 34 1 0 2 -24 3 -54z m165 -2 c-2 -28 -2 -28 14
-9 15 19 16 19 10 -10 -4 -16 -3 -43 2 -60 9 -35 5 -75 -9 -75 -5 0 -9 8 -9
17 0 25 -18 3 -22 -26 -1 -14 -8 -26 -14 -28 -7 -2 -9 8 -6 28 3 22 1 30 -7
25 -6 -4 -11 -3 -11 3 0 5 8 15 18 21 14 9 10 10 -20 7 -21 -1 -38 -2 -38 0 0
1 13 22 29 45 16 24 33 56 36 71 9 36 31 29 27 -9z m276 -13 c3 -8 -1 -12 -9
-9 -7 2 -15 10 -17 17 -3 8 1 12 9 9 7 -2 15 -10 17 -17z m-440 -141 c-9 -13
-14 -15 -24 -6 -15 14 1 37 21 30 11 -5 12 -10 3 -24z m332 28 c0 -2 -11 -29
-24 -62 -19 -45 -25 -54 -30 -39 -7 22 16 87 27 76 4 -3 7 1 7 10 0 10 5 17
10 17 6 0 10 -1 10 -2z m-250 -60 c8 -3 20 2 26 10 8 10 10 1 10 -37 -1 -38
-6 -54 -21 -65 -16 -13 -17 -17 -6 -25 18 -12 5 -52 -15 -44 -7 3 -14 13 -14
22 -1 20 -36 68 -45 59 -9 -9 40 -97 63 -111 6 -4 12 -14 12 -22 0 -8 6 -12
14 -9 9 3 12 12 9 21 -5 12 -3 14 7 8 10 -6 12 -3 8 13 -4 15 -2 19 8 15 17
-6 18 -45 2 -61 -7 -7 -11 -28 -9 -47 1 -20 -2 -35 -8 -35 -6 0 -11 13 -11 28
0 21 -7 32 -25 40 -33 15 -32 15 -39 -4 -4 -9 -1 -23 6 -31 9 -11 9 -19 -1
-35 -11 -18 -11 -20 3 -15 20 8 20 0 0 -21 -15 -15 -20 -15 -64 1 -26 9 -57
17 -69 17 -22 0 -25 7 -15 34 3 9 10 13 15 10 5 -3 9 2 9 10 0 9 -5 16 -12 16
-9 0 -9 3 -1 11 6 6 9 18 6 26 -3 7 3 23 13 34 12 13 15 23 7 27 -5 4 -13 17
-17 30 -6 18 -4 22 13 22 11 0 23 4 26 10 3 5 0 7 -8 4 -27 -10 -31 18 -6 37
l24 18 -24 -6 c-21 -5 -23 -3 -16 18 4 13 12 29 17 34 6 6 7 4 3 -6 -4 -10 3
-20 20 -29 19 -10 22 -16 13 -27 -6 -7 -8 -16 -4 -20 3 -3 6 -1 6 6 0 7 4 10
9 7 9 -6 44 39 47 59 3 27 5 29 12 19 4 -6 14 -13 22 -16z m335 -28 c-3 -5
-11 -10 -16 -10 -6 0 -7 5 -4 10 3 6 11 10 16 10 6 0 7 -4 4 -10z m-147 -51
c-3 -20 -5 -19 -9 9 -3 20 -2 29 4 23 5 -5 7 -19 5 -32z m162 21 c0 -5 -4 -10
-10 -10 -5 0 -10 5 -10 10 0 6 5 10 10 10 6 0 10 -4 10 -10z m40 -18 c0 -20
-18 -42 -34 -42 -6 0 -5 5 2 12 16 16 15 31 0 22 -9 -5 -9 -2 1 9 18 22 31 22
31 -1z m-222 -58 c-2 -19 -11 -33 -26 -39 -13 -5 -25 -21 -29 -33 -4 -16 -8
-20 -13 -12 -5 8 -10 1 -15 -19 -3 -17 -10 -31 -15 -31 -10 0 -22 30 -12 30 4
0 15 12 25 25 17 24 17 26 -3 47 -28 30 -25 39 10 27 17 -6 30 -15 30 -21 0
-5 5 -6 11 -2 8 4 7 9 -2 15 -10 6 -11 11 -3 17 6 4 14 16 18 26 10 28 28 5
24 -30z m272 42 c0 -2 -8 -10 -17 -17 -16 -13 -17 -12 -4 4 13 16 21 21 21 13z
m-102 -107 c-3 -8 -7 -3 -11 10 -4 17 -3 21 5 13 5 -5 8 -16 6 -23z m36 -35
c7 -19 -2 -37 -15 -29 -12 8 -12 45 0 45 5 0 12 -7 15 -16z m-367 -66 c-3 -8
-6 -5 -6 6 -1 11 2 17 5 13 3 -3 4 -12 1 -19z m333 12 c0 -5 -4 -10 -10 -10
-5 0 -10 5 -10 10 0 6 5 10 10 10 6 0 10 -4 10 -10z m69 -53 c7 -29 6 -34 -7
-33 -9 2 -18 8 -20 14 -2 7 -12 12 -23 12 -12 0 -19 7 -19 18 0 29 12 34 33
15 19 -17 19 -17 12 7 -6 19 -4 22 5 14 6 -6 15 -27 19 -47z m-541 -39 c1 -13
-2 -32 -7 -43 -5 -11 -12 -29 -16 -40 -5 -16 -8 -17 -15 -5 -15 23 -12 50 5
50 8 0 16 7 16 15 1 8 3 20 4 25 1 6 3 12 4 15 3 12 7 3 9 -17z m68 -43 c-4
-19 -11 -35 -16 -35 -5 0 -8 6 -6 13 3 6 7 25 11 41 9 41 19 24 11 -19z m494
-14 c0 -5 -7 -11 -14 -14 -10 -4 -13 -1 -9 9 6 15 23 19 23 5z m18 -44 c-13
-25 -17 -18 -11 16 4 20 8 25 14 16 4 -7 3 -21 -3 -32z m126 -13 c5 -14 4 -15
-9 -4 -17 14 -19 20 -6 20 5 0 12 -7 15 -16z m-127 -36 c-3 -8 -6 -5 -6 6 -1
11 2 17 5 13 3 -3 4 -12 1 -19z m181 -23 c-3 -3 -9 2 -12 12 -6 14 -5 15 5 6
7 -7 10 -15 7 -18z m-130 -28 c3 -16 1 -17 -17 -7 -25 13 -28 33 -4 28 10 -2
19 -11 21 -21z m-748 -36 c0 -5 -7 -14 -15 -21 -16 -14 -18 -10 -9 14 6 17 24
22 24 7z"/>
<path d="M1070 425 c7 -8 10 -21 7 -28 -3 -8 -1 -20 4 -28 7 -11 9 -11 9 4 0
9 5 17 10 17 6 0 10 -7 8 -16 -3 -16 26 -43 36 -33 9 8 -6 49 -15 43 -5 -3 -9
-1 -9 5 0 5 5 13 10 16 17 11 11 23 -9 18 -10 -3 -22 0 -25 6 -4 6 -14 11 -23
11 -13 0 -13 -3 -3 -15z"/>
<path d="M1138 323 c7 -3 16 -2 19 1 4 3 -2 6 -13 5 -11 0 -14 -3 -6 -6z"/>
</g>
</svg>
